<?xml version="1.0" encoding="iso-8859-1"?>
<!-- Generator: Adobe Illustrator 19.0.0, SVG Export Plug-In . SVG Version: 6.00 Build 0)  -->
<svg version="1.1" id="Layer_1" xmlns="http://www.w3.org/2000/svg" xmlns:xlink="http://www.w3.org/1999/xlink" x="0px" y="0px"
	 viewBox="0 0 350 350" style="enable-background:new 0 0 350 350;" xml:space="preserve">
<g id="XMLID_1722_">
	<path id="XMLID_1723_" style="fill:#CCF7F9;" d="M196,250h-21h-21c-38.107,0-69,30.893-69,69v31h90h90v-31
		C265,280.893,234.107,250,196,250z"/>
	<g id="XMLID_1724_">
		<path id="XMLID_1725_" style="fill:#99EFF2;" d="M175,250h-21c-38.107,0-69,30.893-69,69v31h90V250z"/>
	</g>
	<path id="XMLID_1726_" style="fill:#00A1A7;" d="M145,330v-79.396c-11.031,1.438-21.244,5.469-30,11.481V330H145z"/>
	<path id="XMLID_1727_" style="fill:#00D7DF;" d="M205,330v-79.396c11.031,1.438,21.244,5.469,30,11.481V330H205z"/>
	<path id="XMLID_1728_" style="fill:#FFC170;" d="M205,250c0,16.568-13.432,30-30,30l0,0c-16.568,0-30-13.432-30-30v-30
		c0-16.568,13.432-30,30-30l0,0c16.568,0,30,13.432,30,30V250z"/>
	<g id="XMLID_1729_">
		<rect id="XMLID_1730_" x="115" y="320" style="fill:#00A1A7;" width="120" height="30"/>
	</g>
	<g id="XMLID_1731_">
		<rect id="XMLID_1732_" x="115" y="320" style="fill:#006C70;" width="60" height="30"/>
	</g>
	<path id="XMLID_1733_" style="fill:#50412E;" d="M315,155c0-10.789-4.886-20.436-12.562-26.855C304.085,124.085,305,119.65,305,115
		c0-14.319-8.604-26.623-20.919-32.043C284.675,80.399,285,77.738,285,75c0-18.779-14.791-34.1-33.356-34.959
		C249.234,23.06,234.645,10,217,10c-5.223,0-10.174,1.152-14.626,3.203C195.961,5.16,186.086,0,175,0s-20.961,5.16-27.375,13.203
		C143.174,11.152,138.223,10,133,10c-17.645,0-32.234,13.06-34.644,30.041C79.79,40.9,65,56.221,65,75
		c0,2.738,0.325,5.399,0.919,7.957C53.603,88.377,45,100.681,45,115c0,4.65,0.915,9.085,2.561,13.145
		C39.886,134.564,35,144.211,35,155c0,14.033,8.262,26.13,20.183,31.71C55.065,187.791,55,188.888,55,190c0,16.568,13.432,30,30,30
		c1.112,0,2.209-0.065,3.29-0.184C93.871,231.738,105.968,240,120,240c19.329,0,35-15.67,35-35s-15.671-35-35-35
		c-3.897,0-7.64,0.646-11.14,1.821c-1.632-2.138-3.543-4.05-5.681-5.681c1.174-3.5,1.821-7.244,1.821-11.14
		c0-4.65-0.915-9.085-2.562-13.145C110.114,135.436,115,125.789,115,115c0-2.738-0.325-5.4-0.919-7.957
		c10.867-4.783,18.838-14.926,20.563-27.084c10.416-0.482,19.636-5.52,25.73-13.162C164.826,68.848,169.777,70,175,70
		s10.174-1.152,14.625-3.203c6.094,7.643,15.315,12.68,25.731,13.162c1.725,12.158,9.696,22.301,20.563,27.084
		C235.325,109.6,235,112.262,235,115c0,10.789,4.886,20.436,12.561,26.855C245.915,145.915,245,150.35,245,155
		c0,3.896,0.646,7.64,1.821,11.141c-2.138,1.631-4.049,3.543-5.681,5.681c-3.5-1.176-7.244-1.822-11.14-1.822
		c-19.329,0-35,15.67-35,35s15.671,35,35,35c14.032,0,26.129-8.262,31.71-20.184c1.081,0.118,2.178,0.184,3.29,0.184
		c16.568,0,30-13.432,30-30c0-1.112-0.065-2.209-0.183-3.29C306.738,181.13,315,169.033,315,155z"/>
	<path id="XMLID_1734_" d="M175,0c-11.086,0-20.961,5.16-27.375,13.203C143.174,11.152,138.223,10,133,10
		c-17.645,0-32.234,13.06-34.644,30.041C79.79,40.9,65,56.221,65,75c0,2.738,0.325,5.399,0.919,7.957
		C53.603,88.377,45,100.681,45,115c0,4.65,0.915,9.085,2.561,13.145C39.886,134.564,35,144.211,35,155
		c0,14.033,8.262,26.13,20.183,31.71C55.065,187.791,55,188.888,55,190c0,16.568,13.432,30,30,30c1.112,0,2.209-0.065,3.29-0.184
		C93.871,231.738,105.968,240,120,240c19.329,0,35-15.67,35-35s-20-45-20-45V79.939c10.269-0.579,19.35-5.587,25.374-13.143
		C164.826,68.848,169.777,70,175,70V0z"/>
	<ellipse id="XMLID_1735_" style="fill:#FFC170;" cx="175" cy="145" rx="100" ry="105"/>
	<path id="XMLID_1736_" style="fill:#E8667D;" d="M175,215.858c-17.419,0-33.58-9.436-42.176-24.627
		c-0.68-1.202-0.257-2.727,0.945-3.407c1.201-0.68,2.727-0.257,3.407,0.944c7.71,13.626,22.203,22.09,37.824,22.09
		c15.622,0,30.115-8.464,37.824-22.09c0.68-1.2,2.206-1.623,3.407-0.944c1.202,0.68,1.625,2.205,0.945,3.407
		C208.581,206.422,192.42,215.858,175,215.858z"/>
	<g id="XMLID_1737_">
		<ellipse id="XMLID_1738_" style="fill:#FFAD41;" cx="140" cy="170" rx="15" ry="10"/>
	</g>
	<g id="XMLID_1739_">
		<circle id="XMLID_1740_" style="fill:#50412E;" cx="140" cy="147.5" r="7.5"/>
	</g>
	<g id="XMLID_1741_">
		<ellipse id="XMLID_1742_" style="fill:#FFAD41;" cx="210" cy="170" rx="15" ry="10"/>
	</g>
	<g id="XMLID_1743_">
		<circle id="XMLID_1744_" style="fill:#50412E;" cx="210" cy="147.5" r="7.5"/>
	</g>
	<path id="XMLID_1745_" style="fill:#FFAD41;" d="M175,238c-22.528,0-44.084-4.358-63.959-12.295
		C128.376,240.872,150.67,250,175,250s46.624-9.128,63.959-24.295C219.084,233.642,197.528,238,175,238z"/>
	<path id="XMLID_62_" style="fill:#50412E;" d="M270,80c-1.854,0-3.657,0.208-5.396,0.59C262.52,68.889,252.301,60,240,60
		c-5.628,0-26.193-20-40-20c-5.7,0-25-10-25-10l-10,20c0,0,10,11.784,10,15c0,13.807,11.193,25,25,25c5.628,0,10.821-1.861,15-5
		c0,13.807,11.193,25,25,25c1.853,0,3.657-0.208,5.395-0.59C247.479,121.111,257.699,130,270,130l5-20L270,80z"/>
	<path id="XMLID_1746_" d="M80,80l-5,30l5,20c12.301,0,22.52-8.889,24.604-20.59c1.738,0.382,3.542,0.59,5.396,0.59
		c13.807,0,25-11.193,25-25c4.179,3.139,9.372,5,15,5c13.807,0,25-11.193,25-25c0-5.68,0-55,0-55L80,80z"/>
	<circle id="XMLID_1747_" style="fill:#FFC170;" cx="75" cy="160" r="20"/>
	<circle id="XMLID_1748_" style="fill:#FFC170;" cx="275" cy="160" r="20"/>
	<path id="XMLID_58_" d="M75,160c11.046,0,20-8.954,20-20s-8.954-20-20-20V160z"/>
	<path id="XMLID_57_" style="fill:#50412E;" d="M275,160c-11.046,0-20-8.954-20-20s8.954-20,20-20V160z"/>
</g>
<g>
</g>
<g>
</g>
<g>
</g>
<g>
</g>
<g>
</g>
<g>
</g>
<g>
</g>
<g>
</g>
<g>
</g>
<g>
</g>
<g>
</g>
<g>
</g>
<g>
</g>
<g>
</g>
<g>
</g>
</svg>
