<?xml version="1.0" encoding="iso-8859-1"?>
<!-- Generator: Adobe Illustrator 16.0.0, SVG Export Plug-In . SVG Version: 6.00 Build 0)  -->
<!DOCTYPE svg PUBLIC "-//W3C//DTD SVG 1.1//EN" "http://www.w3.org/Graphics/SVG/1.1/DTD/svg11.dtd">
<svg version="1.1" id="Capa_1" xmlns="http://www.w3.org/2000/svg" xmlns:xlink="http://www.w3.org/1999/xlink" x="0px" y="0px"
	 width="768.2px" height="768.2px" viewBox="0 0 768.2 768.2" style="enable-background:new 0 0 768.2 768.2;" xml:space="preserve"
	>
<g>
	<g>
		<g>
			<path d="M384.15,400c-110.3,0-200-89.7-200-200c0-110.3,89.7-200,200.1-200c110.301,0,200,89.7,200,200
				C584.15,310.3,494.45,400,384.15,400z M384.15,19.8c-99.4,0-180.3,80.8-180.3,180.2c0,99.4,80.9,180.3,180.3,180.3
				c99.4,0,180.2-80.9,180.2-180.3C564.35,100.6,483.55,19.8,384.15,19.8z"/>
		</g>
		<g>
			<path d="M746.85,768.2H21.95L21.35,646.6c0-42.3,13.9-82,40.2-114.899c25.5-31.9,61.3-54.7,100.8-64.301l1.1-0.3h1.2l440.5-1.2
				l1.3,0.4c38.5,10.5,73.8,34,99.4,66.1C732.25,565.5,746.75,606,746.75,646.5L746.85,768.2L746.85,768.2z M41.65,748.5h685.4
				V646.6c0-36.1-13-72.2-36.601-101.8c-22.8-28.5-53.899-49.5-87.899-59.1l-436.601,1.199c-34.8,8.7-66.4,28.9-88.9,57.101
				c-23.5,29.399-35.9,64.8-35.9,102.5L41.65,748.5z"/>
		</g>
	</g>
</g>
<g>
</g>
<g>
</g>
<g>
</g>
<g>
</g>
<g>
</g>
<g>
</g>
<g>
</g>
<g>
</g>
<g>
</g>
<g>
</g>
<g>
</g>
<g>
</g>
<g>
</g>
<g>
</g>
<g>
</g>
</svg>
