<?xml version="1.0" encoding="UTF-8" standalone="no"?>
<svg
   xmlns:dc="http://purl.org/dc/elements/1.1/"
   xmlns:cc="http://creativecommons.org/ns#"
   xmlns:rdf="http://www.w3.org/1999/02/22-rdf-syntax-ns#"
   xmlns:svg="http://www.w3.org/2000/svg"
   xmlns="http://www.w3.org/2000/svg"
   xmlns:sodipodi="http://sodipodi.sourceforge.net/DTD/sodipodi-0.dtd"
   xmlns:inkscape="http://www.inkscape.org/namespaces/inkscape"
   inkscape:version="1.0 (unknown)"
   sodipodi:docname="swap.svg"
   xml:space="preserve"
   viewBox="0 0 512 512"
   version="1.1"
   style="enable-background:new 0 0 512 512;"
   id="Layer_1"><metadata
     id="metadata13"><rdf:RDF><cc:Work
         rdf:about=""><dc:format>image/svg+xml</dc:format><dc:type
           rdf:resource="http://purl.org/dc/dcmitype/StillImage" /></cc:Work></rdf:RDF></metadata><defs
     id="defs11" /><sodipodi:namedview
     inkscape:current-layer="Layer_1"
     inkscape:window-maximized="1"
     inkscape:window-y="0"
     inkscape:window-x="0"
     inkscape:cy="256"
     inkscape:cx="256"
     inkscape:zoom="1.65625"
     showgrid="false"
     id="namedview9"
     inkscape:window-height="1007"
     inkscape:window-width="1920"
     inkscape:pageshadow="2"
     inkscape:pageopacity="0"
     guidetolerance="10"
     gridtolerance="10"
     objecttolerance="10"
     borderopacity="1"
     bordercolor="#666666"
     pagecolor="#ffffff" /><style
     id="style2"
     type="text/css">
	.st0{fill:#3A3A3A;}
</style><g
     transform="rotate(90,256,255.95)"
     id="g6"><path
       id="XMLID_1138_"
       d="m 458.2,254 c 0,-10.3 -8.3,-18.6 -18.7,-18.6 -8.6,0 -15.9,5.9 -18,13.8 v 0 c 0,0.1 -0.1,0.3 -0.1,0.6 0,0.2 -0.1,0.4 -0.1,0.6 -0.5,2.3 -1.7,6.6 -1.9,7.6 -1.8,7.6 -3.8,15 -6.6,22.1 -5.4,14.2 -12.8,27.2 -21.4,38.5 l -1.6,2.1 -1.7,2 c -1.1,1.3 -2.2,2.7 -3.4,4 -2.4,2.5 -4.6,5.1 -7,7.5 -4.7,4.8 -9.8,9.1 -14.8,13 -10.2,7.7 -20.5,13.8 -30.6,18.2 -10,4.4 -19.5,7.3 -28.1,9.1 -2.1,0.4 -4.2,0.9 -6.2,1.2 -2,0.3 -3.9,0.6 -5.8,0.9 -1.9,0.2 -3.7,0.4 -5.4,0.6 -0.9,0.1 -1.7,0.2 -2.5,0.2 -0.8,0 -1.6,0.1 -2.4,0.1 -1.5,0.1 -3,0.2 -4.4,0.2 -1.3,0 -2.4,0 -3.5,0 -1.1,0 -2,0 -2.9,0 -0.2,0 -0.5,0 -0.8,0 v -26.4 c 0,-8.9 -10.3,-13.8 -17.2,-8.1 L 245,349 c -22.2,15.8 -43.2,33.3 -62.7,52.4 -6.9,5.7 -6.9,16.3 0,21.9 l 0.4,0.4 c 19.3,18.8 40,36.1 62,51.8 l 8.6,6.1 c 6.9,5.6 17.2,0.8 17.2,-8.1 V 447 c 0.3,0 0.6,-0.1 0.9,-0.1 0.6,-0.1 1.1,-0.1 2,-0.2 1.6,-0.2 3.4,-0.4 5.3,-0.6 1.9,-0.2 4,-0.5 6.1,-0.8 2,-0.4 4.1,-0.7 6.4,-1.1 1.1,-0.2 2.3,-0.4 3.4,-0.6 1.2,-0.2 2.4,-0.5 3.6,-0.8 2.4,-0.6 5,-1.1 7.6,-1.8 2.6,-0.8 5.4,-1.5 8.2,-2.4 2.8,-0.8 5.7,-1.9 8.7,-2.9 11.8,-4.2 24.8,-10.1 37.9,-18 13.1,-7.9 26.2,-18 38.5,-30.2 6.1,-6.1 12,-12.7 17.5,-19.9 2.8,-3.5 5.4,-7.3 8,-11 1.3,-1.9 2.5,-3.9 3.7,-5.8 l 1.8,-2.9 1.7,-3 c 9.3,-16.1 16.5,-34 21,-52.7 2.3,-9.3 3.7,-18.9 4.7,-28.5 0.2,-2.4 0.5,-4.9 0.6,-7.3 0.1,-0.9 0.1,-1.7 0.1,-2.4 z"
       class="st0" /><path
       id="XMLID_1202_"
       d="m 53.8,258 c 0,10.3 8.3,18.6 18.7,18.6 8.6,0 15.9,-5.9 18,-13.8 v 0 c 0,-0.1 0.1,-0.3 0.1,-0.6 0,-0.2 0.1,-0.4 0.1,-0.6 0.5,-2.3 1.7,-6.6 1.9,-7.6 1.8,-7.6 3.8,-15 6.6,-22.1 5.4,-14.2 12.8,-27.2 21.4,-38.5 l 1.6,-2.1 1.7,-2 c 1.1,-1.3 2.2,-2.7 3.4,-4 2.4,-2.5 4.6,-5.1 7,-7.5 4.7,-4.8 9.8,-9.1 14.8,-13 10.2,-7.7 20.5,-13.8 30.6,-18.2 10,-4.4 19.5,-7.3 28.1,-9.1 2.1,-0.4 4.2,-0.9 6.2,-1.2 2,-0.3 3.9,-0.6 5.8,-0.9 1.9,-0.2 3.7,-0.4 5.4,-0.6 0.9,-0.1 1.7,-0.2 2.5,-0.2 0.8,0 1.6,-0.1 2.4,-0.1 1.5,-0.1 3,-0.2 4.4,-0.2 1.3,0 2.4,0 3.5,0 1.1,0 2,0 2.9,0 0.2,0 0.5,0 0.8,0 v 26.4 c 0,8.9 10.3,13.8 17.2,8.1 l 8.3,-5.9 c 22.2,-15.8 43.2,-33.3 62.7,-52.4 6.9,-5.7 6.9,-16.3 0,-21.9 l -0.4,-0.4 c -19.3,-18.8 -40,-36.1 -62,-51.8 l -8.6,-6.1 C 252,24.7 241.7,29.5 241.7,38.4 V 65 c -0.3,0 -0.6,0.1 -0.9,0.1 -0.6,0.1 -1.1,0.1 -2,0.2 -1.6,0.2 -3.4,0.4 -5.3,0.6 -1.9,0.2 -4,0.5 -6.1,0.8 -2,0.4 -4.1,0.7 -6.4,1.1 -1.1,0.2 -2.3,0.4 -3.4,0.6 -1.2,0.2 -2.4,0.5 -3.6,0.8 -2.4,0.6 -5,1.1 -7.6,1.8 -2.6,0.8 -5.4,1.5 -8.2,2.4 -2.8,0.8 -5.7,1.9 -8.7,2.9 -11.8,4.2 -24.8,10.1 -37.9,18 -13.1,7.9 -26.2,18 -38.5,30.2 -6.1,6.1 -12,12.7 -17.5,19.9 -2.8,3.5 -5.4,7.3 -8,11 -1.3,1.9 -2.5,3.9 -3.7,5.8 l -1.8,2.9 -1.7,3 c -9.3,16.1 -16.5,34 -21,52.7 -2.3,9.3 -3.7,18.9 -4.7,28.5 -0.2,2.4 -0.5,4.9 -0.6,7.3 -0.3,0.9 -0.3,1.7 -0.3,2.4 z"
       class="st0" /></g></svg>
