<?xml version="1.0" encoding="utf-8"?>
<!-- Generator: Adobe Illustrator 22.1.0, SVG Export Plug-In . SVG Version: 6.00 Build 0)  -->
<svg xmlns="http://www.w3.org/2000/svg" xmlns:xlink="http://www.w3.org/1999/xlink" version="1.1" id="Layer_1" x="0px" y="0px" viewBox="0 0 512 512" style="enable-background:new 0 0 512 512;" xml:space="preserve" width="512" height="512">
<style type="text/css">
	.st0{fill:#DB9C2E;}
	.st1{fill:#BF6C0D;}
	.st2{fill:#F9BB32;}
	.st3{fill:#FCE575;}
	.st4{fill:#FFD551;}
	.st5{fill:#FFC34C;}
	.st6{fill:#FFDF74;}
	.st7{fill:#FFA730;}
	.st8{fill:#FFF4C1;}
	.st9{fill:#FFEACF;}
	.st10{fill:#FF624B;}
	.st11{fill:#CCC033;}
	.st12{fill:#8C4C17;}
	.st13{fill:#FFD59A;}
	.st14{fill:#99AF17;}
	.st15{fill:#FCF9DE;}
	.st16{fill:#E58D23;}
	.st17{fill:#A56021;}
	.st18{fill:#FF4B34;}
	.st19{fill:#FF9079;}
	.st20{fill:#EACF32;}
	.st21{fill:#FFB74B;}
	.st22{fill:#FCDA4F;}
	.st23{fill:#FFEA63;}
</style>
<g>
	<g>
		<g>
			<path class="st17" d="M353.206,484.086H105.952c-16.569,0-30-13.431-30-30V118.711c0-16.569,13.431-30,30-30h247.253     c16.569,0,30,13.431,30,30v335.375C383.206,470.655,369.774,484.086,353.206,484.086z"/>
		</g>
	</g>
	<g>
		<g>
			<path class="st12" d="M125.952,454.086V118.711c0-16.568,13.431-30,30-30h-50c-16.569,0-30,13.432-30,30v335.375     c0,16.569,13.431,30,30,30h50C139.384,484.086,125.952,470.655,125.952,454.086z"/>
		</g>
	</g>
	<g>
		<g>
			<path class="st2" d="M238.905,27.914h-18.651c-15.657,0-28.349,12.692-28.349,28.35v53.04h75.349v-53.04     C267.254,40.606,254.561,27.914,238.905,27.914z M229.579,68.095c-7.765,0-14.061-6.295-14.061-14.061     s6.295-14.061,14.061-14.061s14.061,6.295,14.061,14.061S237.345,68.095,229.579,68.095z"/>
		</g>
	</g>
	<g>
		<g>
			<g>
				<path class="st0" d="M240.579,27.968c-0.554-0.033-1.112-0.054-1.675-0.054h-18.651c-15.657,0-28.349,12.692-28.349,28.35v53.04      h22v-53.04C213.905,41.169,225.702,28.835,240.579,27.968z"/>
			</g>
		</g>
	</g>
	<g>
		<g>
			<path class="st8" d="M357.13,449.554V123.243c0-6.617-5.798-11.982-12.95-11.982H114.979c-7.152,0-12.95,5.365-12.95,11.982     V389.3l75.106,72.237H344.18C351.332,461.536,357.13,456.172,357.13,449.554z"/>
		</g>
	</g>
	<g>
		<g>
			<path class="st17" d="M198.579,233.254h-62.003c-4.971,0-9-4.029-9-9v0c0-4.971,4.029-9,9-9h62.003c4.971,0,9,4.029,9,9v0     C207.579,229.225,203.55,233.254,198.579,233.254z"/>
		</g>
	</g>
	<g>
		<g>
			<path class="st17" d="M198.579,183.254h-62.003c-4.971,0-9-4.029-9-9v0c0-4.971,4.029-9,9-9h62.003c4.971,0,9,4.029,9,9v0     C207.579,179.225,203.55,183.254,198.579,183.254z"/>
		</g>
	</g>
	<g>
		<g>
			<path class="st4" d="M281.337,145.995H177.821c-8.284,0-15-6.716-15-15V93.322c0-8.284,6.716-15,15-15h103.516     c8.284,0,15,6.716,15,15v37.672C296.337,139.279,289.621,145.995,281.337,145.995z"/>
		</g>
	</g>
	<g>
		<g>
			<g>
				<path class="st17" d="M319.66,277.254H139.499c-6.585,0-11.923-4.029-11.923-9s5.338-9,11.923-9H319.66      c6.585,0,11.923,4.029,11.923,9S326.245,277.254,319.66,277.254z"/>
			</g>
		</g>
	</g>
	<g>
		<g>
			<path class="st12" d="M320.581,191.839h-90.004c-6.065,0-11-4.935-11-11V167.67c0-6.065,4.935-11,11-11h90.004     c6.065,0,11,4.935,11,11v13.169C331.581,186.904,326.646,191.839,320.581,191.839z M230.577,164.67c-1.654,0-3,1.346-3,3v13.169     c0,1.654,1.346,3,3,3h90.004c1.654,0,3-1.346,3-3V167.67c0-1.654-1.346-3-3-3H230.577z"/>
		</g>
	</g>
	<g>
		<g>
			<path class="st12" d="M320.581,241.839h-90.004c-6.065,0-11-4.935-11-11V217.67c0-6.065,4.935-11,11-11h90.004     c6.065,0,11,4.935,11,11v13.169C331.581,236.904,326.646,241.839,320.581,241.839z M230.577,214.67c-1.654,0-3,1.346-3,3v13.169     c0,1.654,1.346,3,3,3h90.004c1.654,0,3-1.346,3-3V217.67c0-1.654-1.346-3-3-3H230.577z"/>
		</g>
	</g>
	<g>
		<g>
			<g>
				<path class="st17" d="M322.757,327.254H189.404c-4.874,0-8.825-4.029-8.825-9s3.951-9,8.825-9h133.353      c4.874,0,8.825,4.029,8.825,9S327.632,327.254,322.757,327.254z"/>
			</g>
		</g>
	</g>
	<g>
		<g>
			<path class="st12" d="M162.57,343.251h-27.994c-6.065,0-11-4.935-11-11v-27.994c0-6.065,4.935-11,11-11h27.994     c6.065,0,11,4.935,11,11v27.994C173.57,338.317,168.636,343.251,162.57,343.251z M134.576,301.257c-1.654,0-3,1.346-3,3v27.994     c0,1.654,1.346,3,3,3h27.994c1.654,0,3-1.346,3-3v-27.994c0-1.654-1.346-3-3-3H134.576z"/>
		</g>
	</g>
	<g>
		<g>
			<g>
				<path class="st17" d="M322.757,390.254H189.404c-4.874,0-8.825-4.029-8.825-9s3.951-9,8.825-9h133.353      c4.874,0,8.825,4.029,8.825,9S327.632,390.254,322.757,390.254z"/>
			</g>
		</g>
	</g>
	<g>
		<g>
			<path class="st12" d="M162.57,406.251h-27.994c-6.065,0-11-4.935-11-11v-27.994c0-6.065,4.935-11,11-11h27.994     c6.065,0,11,4.935,11,11v27.994C173.57,401.317,168.636,406.251,162.57,406.251z M134.576,364.257c-1.654,0-3,1.346-3,3v27.994     c0,1.654,1.346,3,3,3h27.994c1.654,0,3-1.346,3-3v-27.994c0-1.654-1.346-3-3-3H134.576z"/>
		</g>
	</g>
	<g>
		<g>
			<g>
				<path class="st5" d="M421.559,466.84L421.559,466.84c-6.524,6.523-17.1,6.523-23.624,0L280.549,349.454l23.624-23.624      l117.387,117.387C428.083,449.74,428.083,460.317,421.559,466.84z"/>
			</g>
		</g>
		<g>
			<g>
				<path class="st2" d="M410.477,454.924L292.778,337.225l-12.229,12.229l117.699,117.699c6.351,6.351,16.788,6.211,23.311-0.312      l0,0c2.238-2.238,3.724-4.937,4.455-7.773C420.584,460.467,414.649,459.096,410.477,454.924z"/>
			</g>
		</g>
		<g>
			<g>
				<path class="st0" d="M343.036,425.528l47.757,47.757c10.16,10.16,26.71,10.709,37.107,0.792      c10.71-10.216,10.862-27.246,0.453-37.654l-48.106-48.106c-2.501-2.501-6.557-2.501-9.058,0l-28.153,28.153      C340.535,418.971,340.535,423.027,343.036,425.528z"/>
			</g>
		</g>
		<g>
			<g>
				<path class="st19" d="M308.257,226.501c-16.657-16.657-38.805-25.831-62.362-25.831s-45.705,9.174-62.363,25.831      c-34.387,34.387-34.387,90.339,0,124.726c16.658,16.657,38.805,25.831,62.363,25.831s45.705-9.174,62.362-25.831      c16.658-16.658,25.832-38.805,25.832-62.363S324.915,243.159,308.257,226.501z M292.405,335.375      c-25.646,25.646-67.375,25.646-93.021,0c-25.646-25.646-25.646-67.375,0-93.021c25.646-25.646,67.375-25.646,93.021,0      C318.051,267.999,318.051,309.728,292.405,335.375z"/>
			</g>
		</g>
		<g>
			<g>
				<path class="st15" d="M300.871,295.009c-0.017,0-0.034,0-0.052,0c-3.313-0.028-5.977-2.737-5.949-6.05      c0.291-34.583-30.332-49.266-30.642-49.41c-3.003-1.401-4.302-4.971-2.901-7.974s4.971-4.301,7.974-2.902      c1.549,0.723,37.924,18.173,37.569,60.387C306.842,292.355,304.161,295.009,300.871,295.009z"/>
			</g>
		</g>
		<g>
			<g>
				<path class="st15" d="M290.757,330.352c-1.93,0-3.823-0.928-4.981-2.648c-1.852-2.748-1.125-6.477,1.623-8.329      c7.654-5.157,7.349-12.94,7.343-13.018c-0.225-3.306,2.273-6.168,5.579-6.394c3.303-0.229,6.168,2.273,6.394,5.579      c0.04,0.597,0.84,14.722-12.61,23.784C293.075,330.02,291.909,330.352,290.757,330.352z"/>
			</g>
		</g>
		<g>
			<g>
				<path class="st2" d="M428.204,462.879c-0.018,0-0.035,0-0.053,0c-3.313-0.029-5.977-2.738-5.948-6.052      c0.07-8.108-3.438-10.267-3.473-10.28c-3.093-1.191-4.634-4.663-3.443-7.755c1.191-3.092,4.664-4.634,7.756-3.443      c4.2,1.617,11.276,7.983,11.16,21.582C434.175,460.227,431.494,462.879,428.204,462.879z"/>
			</g>
		</g>
		<g>
			<g>
				<path class="st2" d="M408.725,436.381c-1.535,0-3.071-0.586-4.242-1.757l-28.655-28.654c-2.344-2.343-2.344-6.142-0.001-8.485      c2.344-2.343,6.144-2.343,8.485,0l28.655,28.654c2.344,2.343,2.344,6.142,0.001,8.485      C411.796,435.795,410.26,436.381,408.725,436.381z"/>
			</g>
		</g>
		<g>
			<g>
				<circle class="st15" cx="239.272" cy="236.936" r="9.608"/>
			</g>
		</g>
		<g>
			<g>
				<path class="st3" d="M199.267,335.377c20.681,20.681,51.819,24.68,76.55,12.007c-6.787,1.649-13.818,2.502-20.981,2.502      c-23.558,0-45.705-9.174-62.363-25.831c-2.095-2.095-4.055-4.273-5.895-6.518C189.696,323.987,193.922,330.032,199.267,335.377z      "/>
			</g>
		</g>
		<g>
			<g>
				<g>
					<path class="st10" d="M317.315,324.052c-11.636,11.636-25.954,19.604-41.557,23.361c-24.721,12.638-55.826,8.629-76.491-12.035       c-5.345-5.346-9.572-11.391-12.689-17.841l0.074-0.057c-16.369-20.01-22.614-45.586-18.73-69.845       c-17.588,33.309-12.386,75.597,15.609,103.592c16.658,16.657,38.805,25.831,62.363,25.831c23.557,0,45.705-9.174,62.362-25.832       c13.306-13.306,21.831-30.116,24.725-48.349C328.904,310.58,323.653,317.714,317.315,324.052z"/>
				</g>
			</g>
		</g>
		<g>
			<g>
				<path class="st1" d="M401.793,461.285l-47.757-47.757c-1.758-1.758-2.275-4.282-1.562-6.496l-9.438,9.438      c-2.501,2.501-2.501,6.557,0,9.058l47.757,47.757c10.16,10.16,26.709,10.709,37.107,0.792c2.516-2.399,4.441-5.178,5.792-8.154      C423.545,471.594,410.385,469.877,401.793,461.285z"/>
			</g>
		</g>
	</g>
	<g>
		<g>
			<path class="st5" d="M202.821,130.995V93.322c0-8.284,6.716-15,15-15h-40c-8.284,0-15,6.716-15,15v37.673c0,8.284,6.716,15,15,15     h40C209.537,145.995,202.821,139.279,202.821,130.995z"/>
		</g>
	</g>
	<g>
		<g>
			<circle class="st5" cx="224.024" cy="116.964" r="15.815"/>
		</g>
	</g>
	<g>
		<g>
			<path class="st3" d="M114.979,111.261c-7.152,0-12.95,5.364-12.95,11.981V389.3l23.924,23.01V118.711     c0-2.572,0.325-5.067,0.933-7.449H114.979z"/>
		</g>
	</g>
	<g>
		<g>
			<circle class="st3" cx="207.72" cy="429.48" r="15.815"/>
		</g>
	</g>
	<g>
		<g>
			<path class="st15" d="M344.806,165.171c-3.283,0-5.962-2.642-5.999-5.933l-0.222-19.79c-0.006-0.567,0.026-1.148,0.101-1.771     c0.352-2.925-0.147-4.125-0.369-4.341c-0.209-0.204-1.148-0.394-2.208-0.241c-0.707,0.102-1.361,0.151-2.006,0.151h-21.414     c-3.313,0-6-2.687-6-6s2.687-6,6-6h21.414c0.029,0,0.114-0.002,0.285-0.027c2.271-0.331,8.027-0.648,12.308,3.527     c3.345,3.263,4.658,8.092,3.905,14.354c-0.008,0.063-0.017,0.137-0.016,0.21l0.222,19.793c0.037,3.313-2.619,6.03-5.933,6.067     C344.851,165.171,344.828,165.171,344.806,165.171z"/>
		</g>
	</g>
	<g>
		<g>
			<path class="st15" d="M177.135,461.536L102.029,389.3h59.566c8.582,0,15.54,6.437,15.54,14.378V461.536z"/>
		</g>
	</g>
	<g>
		<g>
			<polygon class="st8" points="125.952,412.309 125.952,389.3 102.029,389.3    "/>
		</g>
	</g>
</g>
</svg>
